<?xml version="1.0" encoding="utf-8"?>
<!-- Generator: Adobe Illustrator 15.0.0, SVG Export Plug-In . SVG Version: 6.00 Build 0)  -->
<!DOCTYPE svg PUBLIC "-//W3C//DTD SVG 1.1//EN" "http://www.w3.org/Graphics/SVG/1.1/DTD/svg11.dtd">
<svg version="1.1" id="Capa_1" xmlns="http://www.w3.org/2000/svg" xmlns:xlink="http://www.w3.org/1999/xlink" x="0px" y="0px"
	 width="301px" height="160px" viewBox="0 0 301 160" enable-background="new 0 0 301 160" xml:space="preserve">
<g id="logo">
	<path fill="#008DCF" d="M74.93,51.7c13.48,0,24.814,10.259,24.814,24.576c0,14.375-11.273,24.635-24.814,24.635H60.674V51.7H74.93z
		 M73.618,90.891c8.292,0,13.958-6.324,14.018-14.556c0-8.231-5.667-14.613-14.018-14.613h-1.73v29.168H73.618z"/>
	<path fill="#008DCF" d="M149.55,100.911H137.5l-3.638-9.842h-18.73l-3.638,9.842h-12.05L119.308,51.7h10.379L149.55,100.911z
		 M124.557,66.911h-0.119l-5.489,14.315h11.095L124.557,66.911z"/>
	<path fill="#008DCF" d="M233.134,87.762l4.772,9.543c0,0-5.487,4.533-16.165,4.533c-13.898,0-26.663-11.333-26.663-25.41
		c0-14.137,12.705-25.589,26.663-25.589c10.678,0,16.165,4.533,16.165,4.533l-4.772,9.543c0,0-3.937-3.042-9.663-3.042
		c-11.274,0-16.225,7.874-16.225,14.436c0,6.621,4.951,14.495,16.225,14.495C229.197,90.804,233.134,87.762,233.134,87.762"/>
	<polygon fill="#00A03B" points="151.42,51.698 162.678,51.698 162.678,71.349 178.542,71.341 162.668,81.162 162.668,100.893 
		151.453,100.93 	"/>
	<polygon fill="#00A03B" points="192.028,51.704 180.771,51.705 180.771,71.354 164.89,81.162 180.781,81.166 180.781,100.897 
		191.993,100.936 	"/>
</g>
</svg>
